<mxfile host="app.diagrams.net" modified="2020-09-24T22:46:20.550Z" agent="5.0 (Macintosh; Intel Mac OS X 10_15_6) AppleWebKit/537.36 (KHTML, like Gecko) Chrome/85.0.4183.83 Safari/537.36" etag="c7HqG9Pcbeh9xGd_3-RS" version="13.6.10" type="github">
  <diagram id="KNriQeZR3AUl86Truulk" name="Page-1">
    <mxGraphModel dx="1121" dy="565" grid="1" gridSize="10" guides="1" tooltips="1" connect="1" arrows="1" fold="1" page="1" pageScale="1" pageWidth="850" pageHeight="1100" math="0" shadow="0">
      <root>
        <mxCell id="0" />
        <mxCell id="1" parent="0" />
        <mxCell id="3yqHeedNnQY73m_kB09l-55" value="Users Table&lt;br&gt;- user ID&lt;br&gt;- user&#39;s name(first)&lt;br&gt;- users phone number" style="whiteSpace=wrap;html=1;aspect=fixed;" vertex="1" parent="1">
          <mxGeometry x="160" y="170" width="120" height="120" as="geometry" />
        </mxCell>
        <mxCell id="3yqHeedNnQY73m_kB09l-56" value="Messages table&lt;br&gt;- message id&lt;br&gt;- message&lt;br&gt;" style="shape=note;whiteSpace=wrap;html=1;backgroundOutline=1;darkOpacity=0.05;" vertex="1" parent="1">
          <mxGeometry x="490" y="170" width="110" height="140" as="geometry" />
        </mxCell>
        <mxCell id="3yqHeedNnQY73m_kB09l-57" value="many-to-many&lt;br&gt;one user can have many messages,&lt;br&gt;one message can have many users" style="whiteSpace=wrap;html=1;aspect=fixed;" vertex="1" parent="1">
          <mxGeometry x="710" y="70" width="100" height="100" as="geometry" />
        </mxCell>
        <mxCell id="3yqHeedNnQY73m_kB09l-58" value="Users per message table&lt;br&gt;-users per message id&lt;br&gt;-user id&lt;br&gt;-message id" style="shape=note;whiteSpace=wrap;html=1;backgroundOutline=1;darkOpacity=0.05;" vertex="1" parent="1">
          <mxGeometry x="340" y="240" width="110" height="130" as="geometry" />
        </mxCell>
        <mxCell id="3yqHeedNnQY73m_kB09l-59" value="messages per user table&lt;br&gt;- messages per user id&lt;br&gt;-user id&lt;br&gt;-message id" style="shape=card;whiteSpace=wrap;html=1;" vertex="1" parent="1">
          <mxGeometry x="340" y="10" width="110" height="130" as="geometry" />
        </mxCell>
        <mxCell id="3yqHeedNnQY73m_kB09l-61" value="" style="shape=table;html=1;whiteSpace=wrap;startSize=0;container=1;collapsible=0;childLayout=tableLayout;" vertex="1" parent="1">
          <mxGeometry y="550" width="300" height="130" as="geometry" />
        </mxCell>
        <mxCell id="3yqHeedNnQY73m_kB09l-62" value="" style="shape=partialRectangle;html=1;whiteSpace=wrap;collapsible=0;dropTarget=0;pointerEvents=0;fillColor=none;top=0;left=0;bottom=0;right=0;points=[[0,0.5],[1,0.5]];portConstraint=eastwest;" vertex="1" parent="3yqHeedNnQY73m_kB09l-61">
          <mxGeometry width="300" height="50" as="geometry" />
        </mxCell>
        <mxCell id="3yqHeedNnQY73m_kB09l-63" value="USERS TABLE" style="shape=partialRectangle;html=1;whiteSpace=wrap;connectable=0;overflow=hidden;fillColor=none;top=0;left=0;bottom=0;right=0;" vertex="1" parent="3yqHeedNnQY73m_kB09l-62">
          <mxGeometry width="60" height="50" as="geometry" />
        </mxCell>
        <mxCell id="3yqHeedNnQY73m_kB09l-64" value="user_id (primary key)" style="shape=partialRectangle;html=1;whiteSpace=wrap;connectable=0;overflow=hidden;fillColor=none;top=0;left=0;bottom=0;right=0;" vertex="1" parent="3yqHeedNnQY73m_kB09l-62">
          <mxGeometry x="60" width="60" height="50" as="geometry" />
        </mxCell>
        <mxCell id="3yqHeedNnQY73m_kB09l-65" value="user_firstname" style="shape=partialRectangle;html=1;whiteSpace=wrap;connectable=0;overflow=hidden;fillColor=none;top=0;left=0;bottom=0;right=0;" vertex="1" parent="3yqHeedNnQY73m_kB09l-62">
          <mxGeometry x="120" width="100" height="50" as="geometry" />
        </mxCell>
        <mxCell id="3yqHeedNnQY73m_kB09l-66" value="user_phone" style="shape=partialRectangle;html=1;whiteSpace=wrap;connectable=0;overflow=hidden;fillColor=none;top=0;left=0;bottom=0;right=0;" vertex="1" parent="3yqHeedNnQY73m_kB09l-62">
          <mxGeometry x="220" width="80" height="50" as="geometry" />
        </mxCell>
        <mxCell id="3yqHeedNnQY73m_kB09l-67" value="" style="shape=partialRectangle;html=1;whiteSpace=wrap;collapsible=0;dropTarget=0;pointerEvents=0;fillColor=none;top=0;left=0;bottom=0;right=0;points=[[0,0.5],[1,0.5]];portConstraint=eastwest;" vertex="1" parent="3yqHeedNnQY73m_kB09l-61">
          <mxGeometry y="50" width="300" height="40" as="geometry" />
        </mxCell>
        <mxCell id="3yqHeedNnQY73m_kB09l-68" value="" style="shape=partialRectangle;html=1;whiteSpace=wrap;connectable=0;overflow=hidden;fillColor=none;top=0;left=0;bottom=0;right=0;" vertex="1" parent="3yqHeedNnQY73m_kB09l-67">
          <mxGeometry width="60" height="40" as="geometry" />
        </mxCell>
        <mxCell id="3yqHeedNnQY73m_kB09l-69" value="" style="shape=partialRectangle;html=1;whiteSpace=wrap;connectable=0;overflow=hidden;fillColor=none;top=0;left=0;bottom=0;right=0;" vertex="1" parent="3yqHeedNnQY73m_kB09l-67">
          <mxGeometry x="60" width="60" height="40" as="geometry" />
        </mxCell>
        <mxCell id="3yqHeedNnQY73m_kB09l-70" value="" style="shape=partialRectangle;html=1;whiteSpace=wrap;connectable=0;overflow=hidden;fillColor=none;top=0;left=0;bottom=0;right=0;" vertex="1" parent="3yqHeedNnQY73m_kB09l-67">
          <mxGeometry x="120" width="100" height="40" as="geometry" />
        </mxCell>
        <mxCell id="3yqHeedNnQY73m_kB09l-71" value="" style="shape=partialRectangle;html=1;whiteSpace=wrap;connectable=0;overflow=hidden;fillColor=none;top=0;left=0;bottom=0;right=0;" vertex="1" parent="3yqHeedNnQY73m_kB09l-67">
          <mxGeometry x="220" width="80" height="40" as="geometry" />
        </mxCell>
        <mxCell id="3yqHeedNnQY73m_kB09l-85" style="shape=partialRectangle;html=1;whiteSpace=wrap;collapsible=0;dropTarget=0;pointerEvents=0;fillColor=none;top=0;left=0;bottom=0;right=0;points=[[0,0.5],[1,0.5]];portConstraint=eastwest;" vertex="1" parent="3yqHeedNnQY73m_kB09l-61">
          <mxGeometry y="90" width="300" height="40" as="geometry" />
        </mxCell>
        <mxCell id="3yqHeedNnQY73m_kB09l-86" style="shape=partialRectangle;html=1;whiteSpace=wrap;connectable=0;overflow=hidden;fillColor=none;top=0;left=0;bottom=0;right=0;" vertex="1" parent="3yqHeedNnQY73m_kB09l-85">
          <mxGeometry width="60" height="40" as="geometry" />
        </mxCell>
        <mxCell id="3yqHeedNnQY73m_kB09l-87" style="shape=partialRectangle;html=1;whiteSpace=wrap;connectable=0;overflow=hidden;fillColor=none;top=0;left=0;bottom=0;right=0;" vertex="1" parent="3yqHeedNnQY73m_kB09l-85">
          <mxGeometry x="60" width="60" height="40" as="geometry" />
        </mxCell>
        <mxCell id="3yqHeedNnQY73m_kB09l-88" style="shape=partialRectangle;html=1;whiteSpace=wrap;connectable=0;overflow=hidden;fillColor=none;top=0;left=0;bottom=0;right=0;" vertex="1" parent="3yqHeedNnQY73m_kB09l-85">
          <mxGeometry x="120" width="100" height="40" as="geometry" />
        </mxCell>
        <mxCell id="3yqHeedNnQY73m_kB09l-89" style="shape=partialRectangle;html=1;whiteSpace=wrap;connectable=0;overflow=hidden;fillColor=none;top=0;left=0;bottom=0;right=0;" vertex="1" parent="3yqHeedNnQY73m_kB09l-85">
          <mxGeometry x="220" width="80" height="40" as="geometry" />
        </mxCell>
        <mxCell id="3yqHeedNnQY73m_kB09l-72" value="" style="shape=table;html=1;whiteSpace=wrap;startSize=0;container=1;collapsible=0;childLayout=tableLayout;" vertex="1" parent="1">
          <mxGeometry x="620" y="550" width="230" height="130" as="geometry" />
        </mxCell>
        <mxCell id="3yqHeedNnQY73m_kB09l-73" value="" style="shape=partialRectangle;html=1;whiteSpace=wrap;collapsible=0;dropTarget=0;pointerEvents=0;fillColor=none;top=0;left=0;bottom=0;right=0;points=[[0,0.5],[1,0.5]];portConstraint=eastwest;" vertex="1" parent="3yqHeedNnQY73m_kB09l-72">
          <mxGeometry width="230" height="40" as="geometry" />
        </mxCell>
        <mxCell id="3yqHeedNnQY73m_kB09l-74" value="MESSSAGES TABLE" style="shape=partialRectangle;html=1;whiteSpace=wrap;connectable=0;overflow=hidden;fillColor=none;top=0;left=0;bottom=0;right=0;" vertex="1" parent="3yqHeedNnQY73m_kB09l-73">
          <mxGeometry width="80" height="40" as="geometry" />
        </mxCell>
        <mxCell id="3yqHeedNnQY73m_kB09l-75" value="message_id (primary key)" style="shape=partialRectangle;html=1;whiteSpace=wrap;connectable=0;overflow=hidden;fillColor=none;top=0;left=0;bottom=0;right=0;" vertex="1" parent="3yqHeedNnQY73m_kB09l-73">
          <mxGeometry x="80" width="90" height="40" as="geometry" />
        </mxCell>
        <mxCell id="3yqHeedNnQY73m_kB09l-76" value="message" style="shape=partialRectangle;html=1;whiteSpace=wrap;connectable=0;overflow=hidden;fillColor=none;top=0;left=0;bottom=0;right=0;" vertex="1" parent="3yqHeedNnQY73m_kB09l-73">
          <mxGeometry x="170" width="60" height="40" as="geometry" />
        </mxCell>
        <mxCell id="3yqHeedNnQY73m_kB09l-77" value="" style="shape=partialRectangle;html=1;whiteSpace=wrap;collapsible=0;dropTarget=0;pointerEvents=0;fillColor=none;top=0;left=0;bottom=0;right=0;points=[[0,0.5],[1,0.5]];portConstraint=eastwest;" vertex="1" parent="3yqHeedNnQY73m_kB09l-72">
          <mxGeometry y="40" width="230" height="40" as="geometry" />
        </mxCell>
        <mxCell id="3yqHeedNnQY73m_kB09l-78" value="" style="shape=partialRectangle;html=1;whiteSpace=wrap;connectable=0;overflow=hidden;fillColor=none;top=0;left=0;bottom=0;right=0;" vertex="1" parent="3yqHeedNnQY73m_kB09l-77">
          <mxGeometry width="80" height="40" as="geometry" />
        </mxCell>
        <mxCell id="3yqHeedNnQY73m_kB09l-79" value="" style="shape=partialRectangle;html=1;whiteSpace=wrap;connectable=0;overflow=hidden;fillColor=none;top=0;left=0;bottom=0;right=0;" vertex="1" parent="3yqHeedNnQY73m_kB09l-77">
          <mxGeometry x="80" width="90" height="40" as="geometry" />
        </mxCell>
        <mxCell id="3yqHeedNnQY73m_kB09l-80" value="" style="shape=partialRectangle;html=1;whiteSpace=wrap;connectable=0;overflow=hidden;fillColor=none;top=0;left=0;bottom=0;right=0;" vertex="1" parent="3yqHeedNnQY73m_kB09l-77">
          <mxGeometry x="170" width="60" height="40" as="geometry" />
        </mxCell>
        <mxCell id="3yqHeedNnQY73m_kB09l-81" value="" style="shape=partialRectangle;html=1;whiteSpace=wrap;collapsible=0;dropTarget=0;pointerEvents=0;fillColor=none;top=0;left=0;bottom=0;right=0;points=[[0,0.5],[1,0.5]];portConstraint=eastwest;" vertex="1" parent="3yqHeedNnQY73m_kB09l-72">
          <mxGeometry y="80" width="230" height="50" as="geometry" />
        </mxCell>
        <mxCell id="3yqHeedNnQY73m_kB09l-82" value="" style="shape=partialRectangle;html=1;whiteSpace=wrap;connectable=0;overflow=hidden;fillColor=none;top=0;left=0;bottom=0;right=0;" vertex="1" parent="3yqHeedNnQY73m_kB09l-81">
          <mxGeometry width="80" height="50" as="geometry" />
        </mxCell>
        <mxCell id="3yqHeedNnQY73m_kB09l-83" value="" style="shape=partialRectangle;html=1;whiteSpace=wrap;connectable=0;overflow=hidden;fillColor=none;top=0;left=0;bottom=0;right=0;" vertex="1" parent="3yqHeedNnQY73m_kB09l-81">
          <mxGeometry x="80" width="90" height="50" as="geometry" />
        </mxCell>
        <mxCell id="3yqHeedNnQY73m_kB09l-84" value="" style="shape=partialRectangle;html=1;whiteSpace=wrap;connectable=0;overflow=hidden;fillColor=none;top=0;left=0;bottom=0;right=0;" vertex="1" parent="3yqHeedNnQY73m_kB09l-81">
          <mxGeometry x="170" width="60" height="50" as="geometry" />
        </mxCell>
        <mxCell id="3yqHeedNnQY73m_kB09l-109" value="" style="shape=table;html=1;whiteSpace=wrap;startSize=0;container=1;collapsible=0;childLayout=tableLayout;" vertex="1" parent="1">
          <mxGeometry x="250" y="690" width="410" height="120" as="geometry" />
        </mxCell>
        <mxCell id="3yqHeedNnQY73m_kB09l-110" value="" style="shape=partialRectangle;html=1;whiteSpace=wrap;collapsible=0;dropTarget=0;pointerEvents=0;fillColor=none;top=0;left=0;bottom=0;right=0;points=[[0,0.5],[1,0.5]];portConstraint=eastwest;" vertex="1" parent="3yqHeedNnQY73m_kB09l-109">
          <mxGeometry width="410" height="40" as="geometry" />
        </mxCell>
        <mxCell id="3yqHeedNnQY73m_kB09l-111" value="USERS PER MESSAGE TABLE" style="shape=partialRectangle;html=1;whiteSpace=wrap;connectable=0;overflow=hidden;fillColor=none;top=0;left=0;bottom=0;right=0;" vertex="1" parent="3yqHeedNnQY73m_kB09l-110">
          <mxGeometry width="110" height="40" as="geometry" />
        </mxCell>
        <mxCell id="3yqHeedNnQY73m_kB09l-112" value="users_per_message_id (primary key)" style="shape=partialRectangle;html=1;whiteSpace=wrap;connectable=0;overflow=hidden;fillColor=none;top=0;left=0;bottom=0;right=0;" vertex="1" parent="3yqHeedNnQY73m_kB09l-110">
          <mxGeometry x="110" width="130" height="40" as="geometry" />
        </mxCell>
        <mxCell id="3yqHeedNnQY73m_kB09l-113" value="user_id &lt;br&gt;(foreign key)" style="shape=partialRectangle;html=1;whiteSpace=wrap;connectable=0;overflow=hidden;fillColor=none;top=0;left=0;bottom=0;right=0;" vertex="1" parent="3yqHeedNnQY73m_kB09l-110">
          <mxGeometry x="240" width="90" height="40" as="geometry" />
        </mxCell>
        <mxCell id="3yqHeedNnQY73m_kB09l-114" value="message_id (foreign key)" style="shape=partialRectangle;html=1;whiteSpace=wrap;connectable=0;overflow=hidden;fillColor=none;top=0;left=0;bottom=0;right=0;" vertex="1" parent="3yqHeedNnQY73m_kB09l-110">
          <mxGeometry x="330" width="80" height="40" as="geometry" />
        </mxCell>
        <mxCell id="3yqHeedNnQY73m_kB09l-115" value="" style="shape=partialRectangle;html=1;whiteSpace=wrap;collapsible=0;dropTarget=0;pointerEvents=0;fillColor=none;top=0;left=0;bottom=0;right=0;points=[[0,0.5],[1,0.5]];portConstraint=eastwest;" vertex="1" parent="3yqHeedNnQY73m_kB09l-109">
          <mxGeometry y="40" width="410" height="40" as="geometry" />
        </mxCell>
        <mxCell id="3yqHeedNnQY73m_kB09l-116" value="" style="shape=partialRectangle;html=1;whiteSpace=wrap;connectable=0;overflow=hidden;fillColor=none;top=0;left=0;bottom=0;right=0;" vertex="1" parent="3yqHeedNnQY73m_kB09l-115">
          <mxGeometry width="110" height="40" as="geometry" />
        </mxCell>
        <mxCell id="3yqHeedNnQY73m_kB09l-117" value="" style="shape=partialRectangle;html=1;whiteSpace=wrap;connectable=0;overflow=hidden;fillColor=none;top=0;left=0;bottom=0;right=0;" vertex="1" parent="3yqHeedNnQY73m_kB09l-115">
          <mxGeometry x="110" width="130" height="40" as="geometry" />
        </mxCell>
        <mxCell id="3yqHeedNnQY73m_kB09l-118" value="" style="shape=partialRectangle;html=1;whiteSpace=wrap;connectable=0;overflow=hidden;fillColor=none;top=0;left=0;bottom=0;right=0;" vertex="1" parent="3yqHeedNnQY73m_kB09l-115">
          <mxGeometry x="240" width="90" height="40" as="geometry" />
        </mxCell>
        <mxCell id="3yqHeedNnQY73m_kB09l-119" value="" style="shape=partialRectangle;html=1;whiteSpace=wrap;connectable=0;overflow=hidden;fillColor=none;top=0;left=0;bottom=0;right=0;" vertex="1" parent="3yqHeedNnQY73m_kB09l-115">
          <mxGeometry x="330" width="80" height="40" as="geometry" />
        </mxCell>
        <mxCell id="3yqHeedNnQY73m_kB09l-120" value="" style="shape=partialRectangle;html=1;whiteSpace=wrap;collapsible=0;dropTarget=0;pointerEvents=0;fillColor=none;top=0;left=0;bottom=0;right=0;points=[[0,0.5],[1,0.5]];portConstraint=eastwest;" vertex="1" parent="3yqHeedNnQY73m_kB09l-109">
          <mxGeometry y="80" width="410" height="40" as="geometry" />
        </mxCell>
        <mxCell id="3yqHeedNnQY73m_kB09l-121" value="" style="shape=partialRectangle;html=1;whiteSpace=wrap;connectable=0;overflow=hidden;fillColor=none;top=0;left=0;bottom=0;right=0;" vertex="1" parent="3yqHeedNnQY73m_kB09l-120">
          <mxGeometry width="110" height="40" as="geometry" />
        </mxCell>
        <mxCell id="3yqHeedNnQY73m_kB09l-122" value="" style="shape=partialRectangle;html=1;whiteSpace=wrap;connectable=0;overflow=hidden;fillColor=none;top=0;left=0;bottom=0;right=0;" vertex="1" parent="3yqHeedNnQY73m_kB09l-120">
          <mxGeometry x="110" width="130" height="40" as="geometry" />
        </mxCell>
        <mxCell id="3yqHeedNnQY73m_kB09l-123" value="" style="shape=partialRectangle;html=1;whiteSpace=wrap;connectable=0;overflow=hidden;fillColor=none;top=0;left=0;bottom=0;right=0;" vertex="1" parent="3yqHeedNnQY73m_kB09l-120">
          <mxGeometry x="240" width="90" height="40" as="geometry" />
        </mxCell>
        <mxCell id="3yqHeedNnQY73m_kB09l-124" value="" style="shape=partialRectangle;html=1;whiteSpace=wrap;connectable=0;overflow=hidden;fillColor=none;top=0;left=0;bottom=0;right=0;" vertex="1" parent="3yqHeedNnQY73m_kB09l-120">
          <mxGeometry x="330" width="80" height="40" as="geometry" />
        </mxCell>
        <mxCell id="3yqHeedNnQY73m_kB09l-90" value="" style="shape=table;html=1;whiteSpace=wrap;startSize=0;container=1;collapsible=0;childLayout=tableLayout;" vertex="1" parent="1">
          <mxGeometry x="260" y="410" width="390" height="120" as="geometry" />
        </mxCell>
        <mxCell id="3yqHeedNnQY73m_kB09l-91" value="" style="shape=partialRectangle;html=1;whiteSpace=wrap;collapsible=0;dropTarget=0;pointerEvents=0;fillColor=none;top=0;left=0;bottom=0;right=0;points=[[0,0.5],[1,0.5]];portConstraint=eastwest;" vertex="1" parent="3yqHeedNnQY73m_kB09l-90">
          <mxGeometry width="390" height="40" as="geometry" />
        </mxCell>
        <mxCell id="3yqHeedNnQY73m_kB09l-92" value="MESSAGES PER USER TABLE" style="shape=partialRectangle;html=1;whiteSpace=wrap;connectable=0;overflow=hidden;fillColor=none;top=0;left=0;bottom=0;right=0;" vertex="1" parent="3yqHeedNnQY73m_kB09l-91">
          <mxGeometry width="100" height="40" as="geometry" />
        </mxCell>
        <mxCell id="3yqHeedNnQY73m_kB09l-106" value="messages_per_user_id (primary key)" style="shape=partialRectangle;html=1;whiteSpace=wrap;connectable=0;overflow=hidden;fillColor=none;top=0;left=0;bottom=0;right=0;" vertex="1" parent="3yqHeedNnQY73m_kB09l-91">
          <mxGeometry x="100" width="130" height="40" as="geometry" />
        </mxCell>
        <mxCell id="3yqHeedNnQY73m_kB09l-93" value="user_id (foreign key)" style="shape=partialRectangle;html=1;whiteSpace=wrap;connectable=0;overflow=hidden;fillColor=none;top=0;left=0;bottom=0;right=0;" vertex="1" parent="3yqHeedNnQY73m_kB09l-91">
          <mxGeometry x="230" width="80" height="40" as="geometry" />
        </mxCell>
        <mxCell id="3yqHeedNnQY73m_kB09l-94" value="message_id (foreign key)" style="shape=partialRectangle;html=1;whiteSpace=wrap;connectable=0;overflow=hidden;fillColor=none;top=0;left=0;bottom=0;right=0;" vertex="1" parent="3yqHeedNnQY73m_kB09l-91">
          <mxGeometry x="310" width="80" height="40" as="geometry" />
        </mxCell>
        <mxCell id="3yqHeedNnQY73m_kB09l-96" value="" style="shape=partialRectangle;html=1;whiteSpace=wrap;collapsible=0;dropTarget=0;pointerEvents=0;fillColor=none;top=0;left=0;bottom=0;right=0;points=[[0,0.5],[1,0.5]];portConstraint=eastwest;" vertex="1" parent="3yqHeedNnQY73m_kB09l-90">
          <mxGeometry y="40" width="390" height="40" as="geometry" />
        </mxCell>
        <mxCell id="3yqHeedNnQY73m_kB09l-97" value="" style="shape=partialRectangle;html=1;whiteSpace=wrap;connectable=0;overflow=hidden;fillColor=none;top=0;left=0;bottom=0;right=0;" vertex="1" parent="3yqHeedNnQY73m_kB09l-96">
          <mxGeometry width="100" height="40" as="geometry" />
        </mxCell>
        <mxCell id="3yqHeedNnQY73m_kB09l-107" style="shape=partialRectangle;html=1;whiteSpace=wrap;connectable=0;overflow=hidden;fillColor=none;top=0;left=0;bottom=0;right=0;" vertex="1" parent="3yqHeedNnQY73m_kB09l-96">
          <mxGeometry x="100" width="130" height="40" as="geometry" />
        </mxCell>
        <mxCell id="3yqHeedNnQY73m_kB09l-98" value="" style="shape=partialRectangle;html=1;whiteSpace=wrap;connectable=0;overflow=hidden;fillColor=none;top=0;left=0;bottom=0;right=0;" vertex="1" parent="3yqHeedNnQY73m_kB09l-96">
          <mxGeometry x="230" width="80" height="40" as="geometry" />
        </mxCell>
        <mxCell id="3yqHeedNnQY73m_kB09l-99" value="" style="shape=partialRectangle;html=1;whiteSpace=wrap;connectable=0;overflow=hidden;fillColor=none;top=0;left=0;bottom=0;right=0;" vertex="1" parent="3yqHeedNnQY73m_kB09l-96">
          <mxGeometry x="310" width="80" height="40" as="geometry" />
        </mxCell>
        <mxCell id="3yqHeedNnQY73m_kB09l-101" value="" style="shape=partialRectangle;html=1;whiteSpace=wrap;collapsible=0;dropTarget=0;pointerEvents=0;fillColor=none;top=0;left=0;bottom=0;right=0;points=[[0,0.5],[1,0.5]];portConstraint=eastwest;" vertex="1" parent="3yqHeedNnQY73m_kB09l-90">
          <mxGeometry y="80" width="390" height="40" as="geometry" />
        </mxCell>
        <mxCell id="3yqHeedNnQY73m_kB09l-102" value="" style="shape=partialRectangle;html=1;whiteSpace=wrap;connectable=0;overflow=hidden;fillColor=none;top=0;left=0;bottom=0;right=0;" vertex="1" parent="3yqHeedNnQY73m_kB09l-101">
          <mxGeometry width="100" height="40" as="geometry" />
        </mxCell>
        <mxCell id="3yqHeedNnQY73m_kB09l-108" style="shape=partialRectangle;html=1;whiteSpace=wrap;connectable=0;overflow=hidden;fillColor=none;top=0;left=0;bottom=0;right=0;" vertex="1" parent="3yqHeedNnQY73m_kB09l-101">
          <mxGeometry x="100" width="130" height="40" as="geometry" />
        </mxCell>
        <mxCell id="3yqHeedNnQY73m_kB09l-103" value="" style="shape=partialRectangle;html=1;whiteSpace=wrap;connectable=0;overflow=hidden;fillColor=none;top=0;left=0;bottom=0;right=0;" vertex="1" parent="3yqHeedNnQY73m_kB09l-101">
          <mxGeometry x="230" width="80" height="40" as="geometry" />
        </mxCell>
        <mxCell id="3yqHeedNnQY73m_kB09l-104" value="" style="shape=partialRectangle;html=1;whiteSpace=wrap;connectable=0;overflow=hidden;fillColor=none;top=0;left=0;bottom=0;right=0;" vertex="1" parent="3yqHeedNnQY73m_kB09l-101">
          <mxGeometry x="310" width="80" height="40" as="geometry" />
        </mxCell>
      </root>
    </mxGraphModel>
  </diagram>
</mxfile>
